<mxfile host="app.diagrams.net" modified="2024-05-27T09:39:30.045Z" agent="Mozilla/5.0 (Windows NT 10.0; Win64; x64) AppleWebKit/537.36 (KHTML, like Gecko) Chrome/125.0.0.0 Safari/537.36 Edg/125.0.0.0" etag="ikWBh_1d6pGOSAvwOzvB" version="24.4.7" type="google">
  <diagram name="Page-1" id="m_T5qwn_Q8rP0GCVHoLo">
    <mxGraphModel grid="1" page="1" gridSize="10" guides="1" tooltips="1" connect="1" arrows="1" fold="1" pageScale="1" pageWidth="850" pageHeight="1100" math="0" shadow="0">
      <root>
        <mxCell id="0" />
        <mxCell id="1" parent="0" />
        <mxCell id="gFosJzpJzTd7QRDbn3aV-2" value="&lt;blockquote style=&quot;margin: 0 0 0 40px; border: none; padding: 0px;&quot;&gt;&lt;b&gt;&lt;font style=&quot;font-size: 14px;&quot;&gt;DevOps&lt;/font&gt;&lt;/b&gt;&lt;/blockquote&gt;" style="rounded=0;whiteSpace=wrap;html=1;align=left;" vertex="1" parent="1">
          <mxGeometry x="10" y="840" width="820" height="90" as="geometry" />
        </mxCell>
        <mxCell id="gFosJzpJzTd7QRDbn3aV-3" value="Azure DevOps" style="image;aspect=fixed;html=1;points=[];align=center;fontSize=12;image=img/lib/azure2/devops/Azure_DevOps.svg;" vertex="1" parent="1">
          <mxGeometry x="267.13" y="867.5" width="30" height="30" as="geometry" />
        </mxCell>
        <mxCell id="gFosJzpJzTd7QRDbn3aV-4" value="&lt;blockquote style=&quot;margin: 0px 0px 0px 40px; border: none; padding: 0px; line-height: 123%;&quot;&gt;&lt;b&gt;&lt;font style=&quot;font-size: 14px;&quot;&gt;Azure&lt;/font&gt;&lt;/b&gt;&lt;/blockquote&gt;" style="rounded=0;whiteSpace=wrap;html=1;align=center;labelPosition=center;verticalLabelPosition=top;verticalAlign=bottom;" vertex="1" parent="1">
          <mxGeometry x="10" y="335.18" width="820" height="490" as="geometry" />
        </mxCell>
        <mxCell id="gFosJzpJzTd7QRDbn3aV-18" value="" style="edgeStyle=orthogonalEdgeStyle;rounded=0;orthogonalLoop=1;jettySize=auto;html=1;entryX=0.108;entryY=-0.013;entryDx=0;entryDy=0;entryPerimeter=0;" edge="1" parent="1" source="gFosJzpJzTd7QRDbn3aV-8" target="gFosJzpJzTd7QRDbn3aV-10">
          <mxGeometry relative="1" as="geometry" />
        </mxCell>
        <mxCell id="gFosJzpJzTd7QRDbn3aV-8" value="Image Host" style="verticalLabelPosition=top;verticalAlign=bottom;html=1;shape=mxgraph.basic.rect;fillColor2=none;strokeWidth=1;size=20;indent=5;labelPosition=center;align=center;" vertex="1" parent="1">
          <mxGeometry x="220.5" y="380" width="120" height="80" as="geometry" />
        </mxCell>
        <mxCell id="gFosJzpJzTd7QRDbn3aV-7" value="&lt;font size=&quot;1&quot; color=&quot;#000000&quot;&gt;&lt;span style=&quot;font-weight: 400; font-size: 12px;&quot;&gt;Container Registry&lt;/span&gt;&lt;/font&gt;" style="sketch=0;html=1;verticalAlign=top;labelPosition=center;verticalLabelPosition=bottom;align=center;spacingTop=-6;fontSize=11;fontStyle=1;fontColor=#999999;shape=image;aspect=fixed;imageAspect=0;image=data:image/svg+xml,PHN2ZyB4bWxucz0iaHR0cDovL3d3dy53My5vcmcvMjAwMC9zdmciIHhtbG5zOnY9Imh0dHBzOi8vdmVjdGEuaW8vbmFubyIgd2lkdGg9IjM3Ny4xNTkzMDIxNjAyNjMwNSIgaGVpZ2h0PSIzMzYuMTYyNDk5MDAzMzEwOCIgdmlld0JveD0iLTAuMDU4MDAwMDA1NzgxNjUwNTQgMC4xMTI5OTk5OTgwMzMwNDY3MiA5OS43OTAwMDA5MTU1MjczNCA4OC45NDMwMDA3OTM0NTcwMyI+JiN4YTs8c3R5bGUgdHlwZT0idGV4dC9jc3MiPiYjeGE7CS5zdDB7ZmlsbDojNjY5ZGY2O30mI3hhOwkuc3Qxe2ZpbGw6I2FlY2JmYTt9JiN4YTsJLnN0MntmaWxsOiM0Mjg1ZjQ7fSYjeGE7PC9zdHlsZT4mI3hhOwk8cGF0aCBjbGFzcz0ic3QwIiBkPSJNNTMuMjQzIDYyLjA5VjQ3LjA5NGwxMy4yMDEgOC40MTZ2MTUuMDM4em0tMzMuMDIxIDBWNDcuMDk0bDEzLjIwMSA4LjQxNnYxNS4wMzh6bTE2LjUxMS0zMi4yODVWMTQuODFsMTMuMjAxIDguNDE2djE1LjAzOHptNjIuOTk5IDMzLjk2VjI1LjQwM2wtOS41NjItMS44ODR2NDIuMTMxem0tOTkuNzg4IDBWMjUuNDAzbDkuNTYyLTEuODg0djQyLjEzMXoiLz4mI3hhOwk8cGF0aCBjbGFzcz0ic3QxIiBkPSJNNTMuMTg1IDQ3LjA5NGwxMy4yNTgtOC4yODcgMTMuMDE2IDguMjM0LTEzLjAxNiA4LjQ2OXptLTMzLjAyMSAwbDEzLjI1OC04LjI4NyAxMy4wMTYgOC4yMzQtMTMuMDE2IDguNDY5ek0zNi42NzUgMTQuODFsMTMuMjU4LTguMjg3IDEzLjAxNiA4LjIzNC0xMy4wMTYgOC40Njl6bTYzLjA1NiA0OC45NTZ2MTIuMjE3TDc3LjAxIDg5LjA1NVY3Ny43NTJ6bTAtMzguMzYzVjEzLjE4Nkw3Ny4wMS4xMTN2MTEuMzAzek0tLjA1OCA2My43NjZ2MTIuMjE3bDIyLjcyMSAxMy4wNzNWNzcuNzUyem0wLTM4LjM2M1YxMy4xODZMMjIuNjYzLjExM3YxMS4zMDN6Ii8+JiN4YTsJPHBhdGggY2xhc3M9InN0MiIgZD0iTTY2LjQ0NCA3MC41NDdWNTUuNTFsMTMuMDE2LTguNDY5djE1LjR6bS0zMy4wMjEgMFY1NS41MWwxMy4wMTYtOC40Njl2MTUuNHptMTYuNTExLTMyLjI4NVYyMy4yMjVsMTMuMDE2LTguNDY5djE1LjR6bTQ5Ljc5OCAyNS41MDNsLTkuNTYyIDUuODh2LTMuOTk2em0wLTM4LjM2M2wtOS41NjItNS44OHYzLjk5NnpNLS4wNTggNjMuNzY2bDkuNTYyIDUuODh2LTMuOTk2em0wLTM4LjM2M2w5LjU2Mi01Ljg4djMuOTk2eiIvPiYjeGE7PC9zdmc+;" vertex="1" parent="1">
          <mxGeometry x="266" y="400" width="30" height="30" as="geometry" />
        </mxCell>
        <mxCell id="gFosJzpJzTd7QRDbn3aV-10" value="App Host" style="verticalLabelPosition=top;verticalAlign=bottom;html=1;shape=mxgraph.basic.rect;fillColor2=none;strokeWidth=1;size=20;indent=5;labelPosition=center;align=center;spacingRight=9;" vertex="1" parent="1">
          <mxGeometry x="220" y="530" width="120" height="270" as="geometry" />
        </mxCell>
        <mxCell id="gFosJzpJzTd7QRDbn3aV-11" value="App Service Plan" style="image;aspect=fixed;html=1;points=[];align=center;fontSize=12;image=img/lib/azure2/app_services/App_Service_Plans.svg;" vertex="1" parent="1">
          <mxGeometry x="270" y="584.57" width="31" height="31" as="geometry" />
        </mxCell>
        <mxCell id="gFosJzpJzTd7QRDbn3aV-12" value="App Service&lt;div&gt;Web App&lt;/div&gt;" style="image;aspect=fixed;html=1;points=[];align=center;fontSize=12;image=img/lib/azure2/app_services/App_Services.svg;" vertex="1" parent="1">
          <mxGeometry x="267.13" y="688.13" width="25.75" height="25.75" as="geometry" />
        </mxCell>
        <mxCell id="gFosJzpJzTd7QRDbn3aV-13" value="Storage" style="verticalLabelPosition=top;verticalAlign=bottom;html=1;shape=mxgraph.basic.rect;fillColor2=none;strokeWidth=1;size=20;indent=5;labelPosition=center;align=center;" vertex="1" parent="1">
          <mxGeometry x="450" y="530" width="120" height="270" as="geometry" />
        </mxCell>
        <mxCell id="gFosJzpJzTd7QRDbn3aV-14" value="Postgres" style="image;aspect=fixed;html=1;points=[];align=center;fontSize=12;image=img/lib/azure2/databases/Azure_Database_PostgreSQL_Server.svg;" vertex="1" parent="1">
          <mxGeometry x="492.5" y="580.8100000000001" width="28.89" height="38.52" as="geometry" />
        </mxCell>
        <mxCell id="gFosJzpJzTd7QRDbn3aV-28" style="edgeStyle=orthogonalEdgeStyle;rounded=0;orthogonalLoop=1;jettySize=auto;html=1;exitX=1.019;exitY=0.5;exitDx=0;exitDy=0;exitPerimeter=0;" edge="1" parent="1" source="gFosJzpJzTd7QRDbn3aV-13" target="gFosJzpJzTd7QRDbn3aV-23">
          <mxGeometry relative="1" as="geometry" />
        </mxCell>
        <mxCell id="gFosJzpJzTd7QRDbn3aV-15" value="Blob Storage" style="image;sketch=0;aspect=fixed;html=1;points=[];align=center;fontSize=12;image=img/lib/mscae/BlobBlock.svg;" vertex="1" parent="1">
          <mxGeometry x="492.5" y="688.13" width="35" height="29.4" as="geometry" />
        </mxCell>
        <mxCell id="gFosJzpJzTd7QRDbn3aV-20" style="edgeStyle=orthogonalEdgeStyle;rounded=0;orthogonalLoop=1;jettySize=auto;html=1;entryX=0.002;entryY=0.498;entryDx=0;entryDy=0;entryPerimeter=0;startArrow=classic;startFill=1;" edge="1" parent="1" source="gFosJzpJzTd7QRDbn3aV-10" target="gFosJzpJzTd7QRDbn3aV-13">
          <mxGeometry relative="1" as="geometry" />
        </mxCell>
        <mxCell id="gFosJzpJzTd7QRDbn3aV-21" value="Credential Manager" style="verticalLabelPosition=top;verticalAlign=bottom;html=1;shape=mxgraph.basic.rect;fillColor2=none;strokeWidth=1;size=20;indent=5;labelPosition=center;align=center;" vertex="1" parent="1">
          <mxGeometry x="450" y="380" width="120" height="80" as="geometry" />
        </mxCell>
        <mxCell id="gFosJzpJzTd7QRDbn3aV-22" value="Key Vault" style="image;aspect=fixed;html=1;points=[];align=center;fontSize=12;image=img/lib/azure2/security/Key_Vaults.svg;" vertex="1" parent="1">
          <mxGeometry x="495" y="400" width="30" height="30" as="geometry" />
        </mxCell>
        <mxCell id="gFosJzpJzTd7QRDbn3aV-23" value="Analytics" style="verticalLabelPosition=top;verticalAlign=bottom;html=1;shape=mxgraph.basic.rect;fillColor2=none;strokeWidth=1;size=20;indent=5;labelPosition=center;align=center;" vertex="1" parent="1">
          <mxGeometry x="660" y="530" width="120" height="270" as="geometry" />
        </mxCell>
        <mxCell id="gFosJzpJzTd7QRDbn3aV-26" value="Azure Monitor" style="image;aspect=fixed;html=1;points=[];align=center;fontSize=12;image=img/lib/azure2/management_governance/Monitor.svg;" vertex="1" parent="1">
          <mxGeometry x="703.37" y="563.5600000000001" width="33.25" height="33.25" as="geometry" />
        </mxCell>
        <mxCell id="gFosJzpJzTd7QRDbn3aV-27" value="Log Analytics" style="image;aspect=fixed;html=1;points=[];align=center;fontSize=12;image=img/lib/azure2/analytics/Log_Analytics_Workspaces.svg;" vertex="1" parent="1">
          <mxGeometry x="701.62" y="635.0300000000001" width="36.75" height="36.75" as="geometry" />
        </mxCell>
        <mxCell id="gFosJzpJzTd7QRDbn3aV-35" style="edgeStyle=orthogonalEdgeStyle;rounded=0;orthogonalLoop=1;jettySize=auto;html=1;dashed=1;" edge="1" parent="1" source="gFosJzpJzTd7QRDbn3aV-29" target="gFosJzpJzTd7QRDbn3aV-34">
          <mxGeometry relative="1" as="geometry" />
        </mxCell>
        <mxCell id="gFosJzpJzTd7QRDbn3aV-29" value="Internet" style="image;aspect=fixed;html=1;points=[];align=right;fontSize=12;image=img/lib/azure2/storage/Azure_Stack_Edge.svg;labelPosition=left;verticalLabelPosition=middle;verticalAlign=middle;spacingRight=5;" vertex="1" parent="1">
          <mxGeometry x="90.65" y="640.59" width="38" height="26.82" as="geometry" />
        </mxCell>
        <mxCell id="gFosJzpJzTd7QRDbn3aV-31" style="edgeStyle=orthogonalEdgeStyle;rounded=0;orthogonalLoop=1;jettySize=auto;html=1;entryX=0.017;entryY=0.458;entryDx=0;entryDy=0;entryPerimeter=0;" edge="1" parent="1" source="gFosJzpJzTd7QRDbn3aV-29" target="gFosJzpJzTd7QRDbn3aV-10">
          <mxGeometry relative="1" as="geometry" />
        </mxCell>
        <mxCell id="gFosJzpJzTd7QRDbn3aV-32" value="Azure AD" style="image;aspect=fixed;html=1;points=[];align=right;fontSize=12;image=img/lib/azure2/identity/Managed_Identities.svg;labelPosition=left;verticalLabelPosition=middle;verticalAlign=middle;spacingRight=5;" vertex="1" parent="1">
          <mxGeometry x="89.30000000000001" y="528.22" width="40.7" height="39.5" as="geometry" />
        </mxCell>
        <mxCell id="gFosJzpJzTd7QRDbn3aV-33" style="edgeStyle=orthogonalEdgeStyle;rounded=0;orthogonalLoop=1;jettySize=auto;html=1;entryX=0.507;entryY=0.034;entryDx=0;entryDy=0;entryPerimeter=0;endArrow=none;endFill=0;startArrow=classic;startFill=1;dashed=1;" edge="1" parent="1" source="gFosJzpJzTd7QRDbn3aV-32" target="gFosJzpJzTd7QRDbn3aV-29">
          <mxGeometry relative="1" as="geometry" />
        </mxCell>
        <mxCell id="gFosJzpJzTd7QRDbn3aV-34" value="Azure DNS" style="image;aspect=fixed;html=1;points=[];align=right;fontSize=12;image=img/lib/azure2/networking/DNS_Zones.svg;labelPosition=left;verticalLabelPosition=middle;verticalAlign=middle;spacingRight=5;" vertex="1" parent="1">
          <mxGeometry x="90.65" y="740.59" width="38" height="38" as="geometry" />
        </mxCell>
        <mxCell id="gFosJzpJzTd7QRDbn3aV-36" style="edgeStyle=orthogonalEdgeStyle;rounded=0;orthogonalLoop=1;jettySize=auto;html=1;entryX=1.024;entryY=0.192;entryDx=0;entryDy=0;entryPerimeter=0;startArrow=classic;startFill=1;exitX=0.009;exitY=0.5;exitDx=0;exitDy=0;exitPerimeter=0;" edge="1" parent="1" source="gFosJzpJzTd7QRDbn3aV-21" target="gFosJzpJzTd7QRDbn3aV-10">
          <mxGeometry relative="1" as="geometry">
            <Array as="points">
              <mxPoint x="400" y="420" />
              <mxPoint x="400" y="582" />
            </Array>
          </mxGeometry>
        </mxCell>
        <mxCell id="gFosJzpJzTd7QRDbn3aV-42" value="Flyway" style="shape=image;verticalLabelPosition=bottom;labelBackgroundColor=default;verticalAlign=top;aspect=fixed;imageAspect=0;image=data:image/png,iVBORw0KGgoAAAANSUhEUgAAAgAAAAIACAYAAAD0eNT6AAAACXBIWXMAAA7EAAAOxAGVKw4bAAAgAElEQVR4nO3df2ojV7r/8WeiRkGmhQQObhKmkYa+ZPgODKpegapX4MoKrF5B16wg6mwg6hWkvIIpr2DKK7hlAglpppkyvnRoE8ExamQiIvr7h1Ua+bckl+rUqfN+Qehc3/x47p1Jzuec55yn/vTp06dPAgAAbPLdZ7orAAAA+SMAAABgIQIAAAAWIgAAAGAhAgAAABYiAAAAYCECAAAAFiIAAABgIQIAAAAWIgAAAGAhAgAAABYiAAAAYCECAAAAFiIAAABgIQIAAAAWIgAAAGAhAgAAABYiAAAAYCECAAAAFiIAAABgIQIAAAAWIgAAAGAhAgAAABYiAAAAYCECAAAAFiIAAABgIQIAAAAWIgAAAGAhAgAAABYiAAAAYKFHugsAbDVJEvk9Seb/81QpGcfxpT9mqpScX/lZahzHMj0722SJd6o0GrLlODf+72qOI5Vm89LPtq787PN2W6rt9iZLBHCHP3369OmT7iIA0y0u5udxLH8oNf/5ZPbzP5SS86MjTRUWX63TkUezgFBdCAePmk2pzYIGoQHIzHcEAOAOi7vyURSJyMUCP1WKBV2zNDBUFgJC3XVF5PppA4BrCACwW7pzX/x1/vvHx7rLwwNVW635qUG13Z7/PicJAAEAFhjPduyjKJr31FngIfLfgJDeWai7rlSazVvvNgAlQgBAeYyiaL57/xhFHNHjQdIWw2PXnZ8YpC0GoAQIADDPOI7nu/iPUcRuHrlKTw3SYFBzHE4MYCICAIorvYCX7uzHccyOHoVV63RkaxYG0lDARUQUGAEAxTGKIhlFkZzHsYzjmF09jFdtteaBoO66tBBQJAQA6JEe44+iiJ09rJKeFNRdl/YBdCIAIB+Lu/tRFGmdYAcUSaXRmIcBTgmQIwIANiNd8D9GkYwOD3WXAxil3u3K41kYIBBgQwgAyAYLPrA5BAJsAAEA65kkiagwnC/8HOkD+UhbBnXXlabnMdEQ6yIAYHnpgq/CkBv6QEFUWy1pet48EABLIgDgdlOlRIXhfOFnlw8UW3o60PQ8aXoecwhwFwIALkuP9lUY0ssHDFfvdudhgFYBriAA4L+L/m9BwHt8oKRqnY580esRBpAiANhqqpQMg4BFH7BQGga2ez3aBPYiANhmGAQXR/wHB7pLAVAAzd1daXqebPd6uktBvggANhjHsZwOBqLCkIt8AG5UaTSk6Xmy4/uMJ7YDAaCs0iP+D4MBT/YArKTaaskT36dFUG4EgLJJd/vD/X3dpQAoge29PU4FyokAUBbDIJBhEPB0D8BG1Ltd2Z5dHEQpEABMNlVKPgwGMgwCjvkB5KLaasl2rydPfJ/2gNkIACaaJMl84edSHwAdKo3GPAgwV8BIBACTTJJE3vf79PcBFMr23p581e8TBMzy3We6K8D9JkkiSa8nP/7lLyz+AApnuL8vP/7lL5L0ejJJEt3lYEmcABTYVCk58X0WfQBG2d7bk6eDAXcEio0WQBGll/tOBwN6/ACMVGk0ZMf3uSxYXASAohkGgZz4Pgs/gFKotlryVb/P88Hi4Q5AUYzjWN66riQvX7L4AyiNyfGxJC9fylvXlXEc6y4HCwgAmqV9/p+fP2eID4DSGh0eys/Pn1+ccCqluxwIAUArFYbyk+PI6Zs3uksBgFycvnkjPzmOqDDUXYr1CAAaTJWSd54n7775hgl+AKwzOT6Wd998I+88j9MAjQgAORtF0UX6PTjQXQoAaKUODuQnx5FRFOkuxUoEgBypMJS3L16w6weAmcnxsbx98YKWgAYEgBxxAxYAbsa/H/NHAAAAwEIEAAAALEQAAADAQgQAAAAsRAAAAMBCBAAAACxEAAAAwEIEAAAALEQAAADAQgQAAAAs9Eh3AQCAbFRbLdlyHKk5zvxnkySRURTxDRJcQwAAAANVGg3Zchx57LpSd13ZchypNJu3/vHjOJbTwUCG+/s5VokiIwAAgAHq3a7UHGe+2Ffb7ZX+/C3HkXYQyHavJ+88T6ZnZ5spFMYgAABAwdQ6HdlynPkOf2vhSP+h6q4rf08S+cV15fzoKLO/LsxDAAAAjRb79vXZcf6mVZpN+WsUyY/tNicBFiMAAEBOFvv2W7MF/66+/UZraTblWRjK2xcvtPz9oR8BAAA2JO3bp4v9qn37Tau7rtS7XRkdHuouBRoQAAAgA4t9+/Q43wRf9vsy4hTASgQAAFjR1b79fU/wiqzuulJttZgTYCECAADco97tzvv26zzBK7otxyEAWIgAAAALap3OfFef9u/LruY4og4OdJeBnBEAAFir2mpdWuxN6dtnre668uvr17rLQM4IAACssOroXJvYcMqB6wgAAErpoaNzbVJpNrkIaCECAADjpU/w6q5rTd8+a1wEtA8BAIBRdIzOtQEXAe1DAABQWEUanVt2XAS0DwEAQGEUfXRumdE2sQ8BAIAWm/zkLVbHRUD7EAAAbFyZRueWGRcB7UIAAJCpq317nuCZg4uAdiEAAHgQG0fnlhX/2dmFAABgaYzOLTcCgF0IAABuVGk05oN16NvbgVaNXQgAAESE0bm4UOt05PzoSHcZyAEBALAQo3Nxm0ec8liDAACUXPoEb/E4H7hNzXFkdHiouwzkgAAAlAijc/FQ/PfFHgQAwGCMzkXWaAfZgwAAGILRucgDJwD2IAAABcQnbwFsGgEA0IzRuSgSTpbsQQAAcrbYt+cJHoqGFoA9CADABjE6F0BREQCAjDA6F4BJCADAmurdLn17AMYiAABLYHQubFJttWRyfKy7DGwYAQC4gtG5sN3n7TYBwAIEAFht8QkefXsANiEAwCp88hYALhAAUFqMzgXW84dSuktADggAKAVG5wLZOT860l0CckAAgHH45C0APBwBAIXH6FwAyB4BAIWy2LfnCR4AbA4BANowOhcA9CEAIDeMzgWKbxzHuktATggA2Ihap3PpK3j07QEzTHkCaA0CAB6M0bnA/aZKye9JQhhGYRAAsBJG5wLLGUWRjKJIzuNYxnEsk+Njae7uyrMw1F3anc5pAViDAIA7MToXuN84juVjFMl4ttjfNkinZsDunymA9iAAYI5P3gL3mySJjON4vrsfHR4u/eea8M/UJEl0l4CcEAAsxehc4H5TpeaLfbrDn56drf3XIwCgSAgAFmB0LrCc+a5+tthPjo8z+2tXGg0jWmi/EwCsQQAoocXRuXXXNeJfOkDexnE8v6A3iqKNfwDHlFO2LEMPio0AYDhG5wL3S/v26WW9Vfr2WTHhn02GANmFAGCQq317nuAB1y327dPj/If07bPy2IAAQP/fLgSAAmN0LnC/xbf2dz3B0ym9h1N0nADYhQBQEIzOBe632Ldf9QmeTk3P013CUhgCZBcCgAbVVuvSYm9CbxDI21Sp+W38LJ7g6WRKAOAEwC4EgBx90evJE9+nbw/c4KbRuWWQfva66KZKleb/51gOASBH9PCBC8uOzi2DpucZEfrZ/duHAABgox4yOrcMTDn+H0WR7hKQMwIAgMxkPTrXdNVWy5gA8JEAYB0CAIC1LfbsR1FED/mK7V5PdwlLs+1kBgQAAEvKe3RuGXxhSACg/28nAgCAa4owOtd023t7xlz85fjfTgQAwHJXR+eW6QmeTiYd/6sw1F0CNCAAAJYxYXSu6erdrhFv/1Oc8NiJAACU2CRJ5tP0bHyCp8uX/b7uEpbG7t9eBACgJMo0Otdkpu3+CQD2IgAAhirr6FzT/Xkw0F3CShgAZC8CAGCA+RF+epxP376Qtvf2jPqSJ8HRbgQAoGBsH51rqkqjIU8N2/0Pg0B3CdCIAABoxOjc8viq3zfioz+L6P/bjQAA5IjRueVU73Zlx/d1l7ESjv9BAAA2hNG5dqg0GtI28Cj91LB2BbJHAAAycHV0Lkf59viq3zdm5O8ijv9BAABWxOhcpJq7u8Yd/YtcXP4joIIAANxjcVfPEzykqq2WkUf/Iuz+cYEAACxgdC6WUWk05FkYGnfrX+Tiv+Pq4EB3GSgAAgCsxehcrOvpYGDUwJ9FH7j8hxkCAKwxH6wzW+zp22Md7R9+MOpTv1cx/AcpAgBKidG52ISdV6+MX/w55UKKAADjMToXedje2zNu1O9V7w36TDE2jwAAo1x9gjeKInY02LidV6+MX/xVGNL2wiUEABQao3Ohm+k9/xST/3AVAQCFwehcFEk64rfpebpLebBRFNEawzUEAGjB6FwUWa3TkXYQGPvU76pf6f3jBgQAbByjc2GSnVevjPy0723Y/eM2BABkjtG5MFE62rfuurpLyRS7f9yGAIAHYXQuTFdpNGTH9+WJ75dm159SYcg/k7gVAQBLWzzKp28P01UaDWl6njwdDEq38KdODPxSIfJDAMCtGJ2LMqq2WrLd65Vyx7/odDDgn1nciQAAEWF0Lsqt2mpJ3XVlu9crXY//JlOlmPqHexEALHT1CR49QpRNrdORLceRLceRx65bmud8yzrxfdpzuBcBoOQYnYuyq7ZasuU4UnMcqbuuFTv8u4yiSIb7+7rLgAEIACXD6FyUWaXRuLSr33IcqbbbussqFC7+YVkEAIMtjs7lCR7KqN7tSm220Ke/4nbv+33u72BpBABDMDoXZZde1Fs8zsfyJknCB3+wEgJAQY2iiNG5KK1KoyF1150v9FuOU+oneXlIej02BVgJAaAAGJ2LskuP8tPFnr59tt73+7QAsTICQM4YnYuyS5/gpTt8+vabNY5j+fX1a91lwEAEgByNokjevnihuwwgM+kTvMXjfORnqpQkvZ7uMmAoAgCApVx9gld3Xfr2mp34Pi1DrI0AAOBGi0/w6q5L375ghkHAwB88CAEAgPWjc00zjmNJXr7UXQYMRwAALHN1dC5P8MwyVUrectcCGSAAACXG6Nzy+cV1ee+PTBAAgBKpdTqXpulxlF8uSa/HpT9khgAAGIrRuXY58X0u/SFTBADAAIzOtdswCOT0zRvdZaBkCABAATE6F6lhEHDjHxtBAAAKoNJoSNPz5r8BIiz+2CwCAKBRpdGQHd+XJ77PkT4uYfHHphEAAE12Xr2Sr/p9Fn5cw+KPPBAAgJxVGg15Fobc2seNWPyRFwIAkKNapyP/E4Zc6sONWPyRJwIAkJNapyN/jSKO/HGjE9/nqR9yRQAAclBttVj8caOpUgz5gRYEAGDD0p4/iz+umiolv7gu432hxWe6CwDK7qt+n5n8uGYURfJju83iD20IAMAG1btd2fF93WWgYN73+/L2xQu+6getaAEAG9QOAt0loECmSsk7z5PR4aHuUgBOAIBN2d7b47kf5lQYyo/tNos/CoMTAGBDOPqHyMWuP+n1RB0c6C4FuIQTAGADap0OF/8gwyCQH9ttFn8UEicAwAbwRT+7jeNY/s/3Oe5HoREAgA0gANiJoT4wCQEA2ACO/+0yVUo+DAZyOhjwtA/GIAAAGat3u7pLQE5Y+GEyAgAArGiSJPJhMJBhELDww1gEACBjNY7/S0uFoQyDgFv9KAUCAJAxPvpTLuluX4WhTI6PdZcDZIYAAGRsqpTuEvBA4ziWj1EkvwUBH+tBaREAgIydx7HuErCiqVIyiiIZRRE7fViDAADAOuM4lvM4lnEcyyiK2OXDSgQAIGNMfyum01kfn/98gAt8CwDYgDFtgMJh8QcuIwAAG6DCUHcJuILnmcBlBABgAwgAxcPzTOAyAgCwAedHR7QBABQaAQDYkNPBQHcJAHArAgCwIcP9fZkkie4yAOBGBABgg5JeT3cJAHAjAgCwQaPDQxkGge4yAOAaBgEBG3bi+1JzHNkq2TO0xWl6IiJPC37ngW80AJcRAIANm56dSdLryV+jyNinaJMkkfFssf8YRdcG6mzv7WmqbHl8owG4jAAA5OD86Eh+cV0jQsBUqf/OyJ/9Oj07u/PPqbbb+RQHIDMEACAnaQj4nzAs1IKZLvTpor/Ol/AeFTzUALiOAADk6PzoSH5yHGkHgTQ9L/e//6a+gmfCmN0/uAMAXEIAAHI2PTuTd998I83dXXk6GGzsNOC+vn2WPi/QicZt+OQvcBkBANBEHRzIKIpku9eTJ77/oCCwTt8+K5VGo1AtDQDLIQAAGk3PzuT0zRs5ffNG6t2uND1PHrvuvU8Gs+jbZ8WE5418lwG4jgAAFMTo8PDSMX292732x/yhVOGOsh+7ru4S7sUMAOA6AgBQUJvs2WepbkAAYAYAcB2jgAE8iAkBgBcAwHUEAABra+7u6i5hKR+jSHcJQOEQAACsTccsg3X8zmeZgWsIAADWZkoA0PlKAigqAgCAtTR3dwv/XQORiyeTAK4jAABYy3avp7uEpfACALgZAQDAyqqtljHH/wwBAm5GAACwMlN2/yK0AIDbEAAArKTSaMgT39ddxlImScIFQOAWBAAAK9nxfSMu/4mw+wfuQgAAsDSTdv8iBADgLgQAAEszafcvQgAA7kIAALAU03b/9P+BuxEAACzl6WBg1O5fhaHuEoBCIwAAuFe92zXq6Z8IAQC4DwEAwJ0qjYa0g0B3GSuZKiWjw0PdZQCFRgAAcKev+n2pttu6y1gJu3/gfgQAALdq7u7KjkEX/1IEAOB+BAAAN6p1OsYd/Ytc3P5XBwe6ywAKjwAA4Jq072/Srf8Uu39gOQQAANc8C0PZchzdZazlw2CguwTACAQAAJe0f/hB6q6ru4y1jKKI4T/AkggAAObaP/xg3Hv/RUMD7ywAuhAAAIiI+Yv/VCkZ7u/rLgMwBgEAgPGLvwi9f2BVj3QXAECf9LZ/0/N0l/JgpwQAYCUEAMBS1VbL6Nv+i4ZBINOzM91lAEahBQBYqLm7K3+L41Is/iIi7/t93SUAxiEAAJZ5+v338iwMjRzyc5NhEPD0D1gDLQDAEvVuV/48GJRm159i9w+shwAAlFyl0ZCng4Hxt/xvwu4fWB8BACipSqMhO74vT3y/NMf9V7H7B9ZHAABKxoaFX+Ri8Wf3D6yPAACURLXVkie+L9u9XqkXfpGLqX+8+wcehgAAGKzSaEjT82S71zP2Az7rOPF93v0DD0QAAAxT63Sk7rrS9DyrFv3UKIqY+Q9kgAAAFFil0ZC660rNcaTuurLlOKU/3r/Pie/rLgEoBQIAUCD1blcezxb6LceRarutu6RCOR0M5PzoSHcZQCkQAABNap2ObM129rXZgo/bTZKEZ39AhggAQA6qrdalxd7G3v1DJb0eF/+ADBEAgIxVGg3Zcpz5UX7dda3v2z/U6WAgo8ND3WUApUIAAB6o3u3Oj/DrrkvfPmPjOJaTf/xDdxlA6RAAgBWkffvFHT42Z6qUJCX8hgFQBAQA4BZp354nePqc+D63/oENIQAAcr1vzxM8/YZBwMAfYIMIALBSOk0v3eFzlF8s4ziW5OVL3WUApUYAQOlVW61Liz1P8IptkiTylv+MgI0jAKBUFo/y6dubZ6qU/NvzeO8P5IAAAKOlT/DSxZ6+vdmSXo9Lf0BOCAAwBqNzyy3p9UQdHOguA7AGAQCFdPUJHn37ckt6PW78AzkjAEA7Rufa7X2/z+IPaEAAQO4YnYvUMAjk19evdZcBWIkAgI3iCR5uMwwC3voDGhEAkLlapyNf9HrS9Dx297gRPX9APwIAMlPvduXLfp9dPu7E4g8UAwEAD1ZpNKQdBNL0PN2loMCmSsmJ77P4AwVBAMCD1LtdeRaG3NrHnaZKyS+uy5AfoEA+010AzLW9tydfRxGLP+40jmP5yXFY/IGCIQBgLdt7e9IOAt1loOCGQSBvXVcmx8e6SwFwBS0ArIzFH8s48X05ffNGdxkAbkEAwEpqnY48HQx0l4ECmySJ/NvzOPIHCo4WAFbSDgJ6/riVCkP6/YAhOAHA0r789lu+wIcbTZXia36AYQgAWEql0ZAnvq+7DBSQCkNJej2Znp3pLgXACmgBYCk7vs/RPy6ZJIm88zx59803LP6AgTgBwFK+6PV0l4ACed/vy+lgwMIPGIwAgHs1d3f5qA9ERGQURZL0erzrB0qAFgDuxcd9MIoieeu68vbFCxZ/oCQ4AcC9HhMArDVJEjnxfW73AyVEAMC9ePpnn1EUya/9vowOD3WXAmBDCAC4U73b1V0CcqTCUE4HAxZ+wAIEAMByU6VkGATyYTCgvw9YhACAO/H2v7xUGIoKQxnu7+suBYAGBADcied/5TKOYxkGgQyDgDf8gOUIALjTeRzrLgEPMFVKRlE03+2z6ANIEQCAkhlFkYyiSD5GEZf5ANyKAIA7/Z4kukvAHSZJIuM4llEUyXkcs+ADWBoBAHeaHB/LVCkuAxbMie+LCkNu7QNYG6OAca9RFOkuAVecxzGLP4AHIQDgXgQAACgfAgDupcJQdwkAgIwRAHCvyfExIQAASoYAgKWcDga6S8ACvtAI4KEIAFjK6PCQuwAFwoAmAA9FAMDSTnxfdwmYmSqluwQAhiMAYGnnR0fyvt/XXQYAIAMEAKzk19evZVyy4+dJkogKQ3nf78tb1+W+AwArMAkQK3vruvJ1FMmW4+guZS3prPzzOJbxDQN1uGAHwAYEAKxsenZmTAgYx7F8jCIZzxb786Oje/+cR4w9BmABAgDWUsQQMEkSGc0W+4d8GKdWkP977sJHmgA8FAEAa5uencnPz5/L0++/l52cXwhMlZp/BS/d4Wf1rfvP2+1M/jqbxHcAADwUAQAPdvKPf4gKQ/nzYLCx04D5525ni/0mF8CqAQEAAB6KAIBMjA4P5efnz2V7b0+2ez2pP+Ai3fwIPz3OX6Jvn5V6t5vb32tdZXuFAUAPAgAyNdzfl+H+vlRbLWl6njQ9T7YcRyq3XKybJMn8gt7HKFq7b58VE3b/DAECkAUCADZicnwsp2/eyOmbNyIiUmk0rrUHdC/2N3nIyUVeJlwABJABAgByMT07K+SCf5UJAYAXAACywCRAYKbaahnRAuBDQACyQAAAZkzY/YtwBwBANggAwEzT83SXsBQTWikAio8AAMjFJUUTAgBPAAFkhQAAiDm7f14AAMgKAQAQyX2U8bo4AQCQFQIArFfrdArzQaP7fIwi3SUAKAkCAKz3xJDdvwgXAAFkhwAAq1UaDdnu9XSXsRSO/wFkiQAAq5nS+xfh+B9AtggAsFal0TDr+J8AACBDBABY6+lgcOtXCotIHRzoLgFAiRAAYKVap2NM71+E3T+A7BEAYKWng4HuElaiwlB3CQBKhgAA6+y8emXMh39SBAAAWSMAwCrVVku+6vd1l7GScRzL5PhYdxkASoYAAKu0g8Coi38i7P4BbAYBANb48ttvjTv6FxEZBoHuEgCUEAEAVqh3u8Yd/Ytw/A9gcwgAKL1apyPPDD1GZ/cPYFMIACi1SqNhZN8/RQAAsCkEAJRWpdGQr6PImE/9XjUMApmenekuA0BJEQBQSqYv/iLs/gFsFgEApVOGxX+SJDI6PNRdBoASIwCgVMqw+IuIvDfwxQIAsxAAUBq1Tkf+FsfGL/5TpRj+A2DjCAAoheburvw1iqTabusu5cE+DAZc/gOwcQQAGO/p99/LszA09qnfoqlScmrYlwoBmOmR7gKAddU6HWkHgfFH/ovY/QPICycAMNKX335bin7/Inb/APLECQCMUu92pR0Epej1X8XuH0CeCAAwQrXVknYQGPk1v2Ww+weQNwIACq3W6cgT35ftXk93KRv1vt9n9w8gVwQAFFJzd1d2fL+0O/5FkySR0zdvdJcBwDIEABRGrdORL3o9aXpeKXv8t0lKfroBoJgIANCq3u1K0/OsW/RTKgyZ+Q9ACwIAclNttWTLcaTuulKb/WqzqVJy4vu6ywBgKQIANqLSaMiW48hj15W668qW45RiUl+W3vf7Mjk+1l0GAEsRAJCJercrNceZ7/BtPM5fxSiKuPgHQCsCAFZW63Rka7bYP57t7rG8qVJc/AOgHQEAd0r79mnP3va+fRY4+gdQBAQAzC327dOjfPr22eLoH0BREAAsRt8+X1Ol5J3n6S4DAESEAGAN+vb6vfM8xv0CKAwCQAnRty+e9/0+A38AFAoBwHBX+/ZbjsNRfsGoMJRfX7/WXQYAXEIAMMxi3z79FcU1jmOe/AEoJAJAgS327Rmda570vT99fwBFRAAoiKt9e0bnmu8X15XzoyPdZQDAjQgAGtC3L7+k12PxB1BoBIAcbTmO/L///V/69iWX9Hoy3N/XXQYA3Okz3QXYpNJssviX3Pt+n8UfgBEIAEBGhkHAcz8AxiAAABkYBoEkL1/qLgMAlkYAAB6IxR+AibgECDwAF/4AmIoTAGBNLP4ATMYJALCidMKfOjjQXQoArI0AAKxgkiTyb89jyA8A4xEAgCWN41jeui6z/QGUAncAgCWcDgby8/PnLP4ASoMTAOAO9PsBlBUBALjFOI7lnefJ5PhYdykAkDlaAMAN3vf78vPz5yz+AEqLEwBgwTiO+ZQvACtwAgDMpLt+Fn8ANuAEANYbRZEkvR7H/QCsQgCAtSZJIie+zw1/AFYiAMA6U6Xkfb8vp2/e6C4FALQhAMAaU6Xkw2Agp4MBA30AWI8AgNJj4QeA6wgAKK1Jksj7fp9P9gLADQgAKB0VhnI6GMjo8FB3KQBQWAQAlMIkSeTDYCAqDHnOBwBLIADAWJMkERWG8lsQMLwHAFZEAIBRxnEsKgxFhSGLPgA8AAEAhTaOY/kYRTKa/cYtfgDIBgEAhTFJEhnH8XzRH8cxCz4AbAgBANqku/rz2aLP5T0AyA8BALlY3NWP45j+PQBoRgBA5iZJIqPZYn8ex7zHB4ACIgDgQaZKyTiOZRRF9O0BwCAEAKwk7dmnO3z69gBgJgIAbjU/wk+P8+nbA0BpEAAgItef4NG3B4ByIwBYaLFvn+7w6dsDgF0IABZYfGvPUT4AQIQAUDpp354neACAuxAADDZVan5Bjyd4AIBVEAAMwuhcAEBWCAAFxehcAMAmEQAKIH2CN7+VT98eALBhBICcMXvPv0IAAAUzSURBVDoXAFAEBIAcve/35dfXr3WXAQCAfKa7AAAAkD8CAAAAFiIAAABgIQIAAAAWIgAAAGAhAgAAABYiAAAAYCECAAAAFiIAAABgIQIAAAAWIgAAAGAhAgAAABYiAAAAYCECAAAAFiIAAABgIQIAAAAWIgAAAGAhAgAAABYiAORoy3F0lwAAhcS/H/NHAMhR0/Pk63/9S6qtlu5SAKAQqq2WfP2vf0nT83SXYh0CQM7qrit/i2Np7u7qLgUAtGru7srf4ljqrqu7FCsRADSoNJvyLAzl2T//yWkAAOtUWy159s9/yrMwlEqzqbscaxEANGp6nvwtjmXn1SvdpQBALnZevbo4BeXIX7s/ffr06ZPuIiAyjmP5P9+X0eGh7lIAIHP1blf+PBhw2a84vuMEoCC2HEe+jiJp//ADbQEApVFttaT9ww/ydRSx+BcMJwAFNFVKPgwGcjoYyPTsTHc5ALCySqMhO74vT3yfPn8xfUcAKLCpUnLi+zLc39ddCgAsbXtvT54OBiz8xUYLoMgqzaa0g0D+/p//yPbenu5yAOBO23t78vf//EfaQcDibwACgAGq7TZBAEBhLS781XZbdzlYEi0AA02SRH4LAu4IANAm7fF/0eux6JuJOwAmSy8LDoNAJsfHussBYIFqqyXbvR6X+8xHACiLYRDIMAiYIwBgI+rdrmz3erLd6+kuBdkgAJTNOI7ldDDg5QCATGzv7cmO7/OGv3wIAGU1VUqGQSC/BYGcHx3pLgeAQWqdjnwx2+1zzF9aBAAbpKcCKgy5NAjgRpVGQ5qex27fHgQA2wyDQFQYijo40F0KgAJo7u5K0/Po7duHAGCrqVKiwlA+DAa0CADLcMQPIQBA5GKugApD7gsAJZYu+k3P490+RAgAuCoNAyoMeVIIGK7e7UrT81j0cRMCAG6XtglUGMooirhACBRcpdGQuuvOF32O93EHAgCWlwYBFYZMHgQKotpqSdPz5gs/sCQCANaTtgpGUcTpAJCjdJefLvgc7WNNBABkIw0CH6OIuwNAxurdrjyeLfp119VdDsqBAIDNIBAA62PBRw4IAMhHGgjO45iWAbAgPdKvOQ4LPvJEAIAe4zieh4FxHDN/ANaodTqyNVvsa47D2F3oQgBAcSyeEIzjmJcGMF611bq02LO7R4EQAFBsaSgYz37jpABFle7stxxnvrPnHT4KjAAA86Ttg9+TRD5GkfyeJJwWIDfVVks+b7flsevK5+02x/gwFQEA5TGKIpkkyTwY/KEUJwZYW63TkUfN5nyhr7bbHOGjTAgAKL9xHMtUqYvXB0rNTw84NUC6m6/NjuvrriuVZpMdPWxAAIDd0hODxV/nv09AMF66wFdnv31+5VfAYgQA4C5TpWQcxyJy0WIQETmfnSjQYtArPaKvNJtSm+3Y0yN6LuAB9yIAAFlITw1ELgLCH0rNfz6Z/ZzAcLd0QReR+Y5dROTRwgLPzh3IDAEA0GUxNIhcPm1Y/Nn5lZ+lxnGsdaJipdG4tVdeu2EHfnVXzmIOaEUAAGw1jmMuuwH2+u4z3RUA0IPFH7AbAQAAAAsRAAAAsBABAAAACxEAAACwEAEAAAALEQAAALAQAQAAAAsRAAAAsBABAAAACxEAAACwEAEAAAALEQAAALAQAQAAAAsRAAAAsBABAAAACxEAAACwEAEAAAALEQAAALAQAQAAAAsRAAAAsBABAAAACxEAAACwEAEAAAALEQAAALAQAQAAAAsRAAAAsBABAAAACxEAAACwEAEAAAAL/X9oGVOt1AkB2QAAAABJRU5ErkJggg==;" vertex="1" parent="1">
          <mxGeometry x="490" y="862.5" width="40" height="40" as="geometry" />
        </mxCell>
        <mxCell id="gFosJzpJzTd7QRDbn3aV-43" value="Terraform" style="shape=image;verticalLabelPosition=bottom;labelBackgroundColor=default;verticalAlign=top;aspect=fixed;imageAspect=0;image=data:image/jpeg,/9j/4AAQSkZJRgABAQEAAAAAAAD/4QAuRXhpZgAATU0AKgAAAAgAAkAAAAMAAAABAAAAAEABAAEAAAABAAAAAAAAAAD/2wBDAAoHBwkHBgoJCAkLCwoMDxkQDw4ODx4WFxIZJCAmJSMgIyIoLTkwKCo2KyIjMkQyNjs9QEBAJjBGS0U+Sjk/QD3/2wBDAQsLCw8NDx0QEB09KSMpPT09PT09PT09PT09PT09PT09PT09PT09PT09PT09PT09PT09PT09PT09PT09PT09PT3/wAARCAHaAdoDASIAAhEBAxEB/8QAHwAAAQUBAQEBAQEAAAAAAAAAAAECAwQFBgcICQoL/8QAtRAAAgEDAwIEAwUFBAQAAAF9AQIDAAQRBRIhMUEGE1FhByJxFDKBkaEII0KxwRVS0fAkM2JyggkKFhcYGRolJicoKSo0NTY3ODk6Q0RFRkdISUpTVFVWV1hZWmNkZWZnaGlqc3R1dnd4eXqDhIWGh4iJipKTlJWWl5iZmqKjpKWmp6ipqrKztLW2t7i5usLDxMXGx8jJytLT1NXW19jZ2uHi4+Tl5ufo6erx8vP09fb3+Pn6/8QAHwEAAwEBAQEBAQEBAQAAAAAAAAECAwQFBgcICQoL/8QAtREAAgECBAQDBAcFBAQAAQJ3AAECAxEEBSExBhJBUQdhcRMiMoEIFEKRobHBCSMzUvAVYnLRChYkNOEl8RcYGRomJygpKjU2Nzg5OkNERUZHSElKU1RVVldYWVpjZGVmZ2hpanN0dXZ3eHl6goOEhYaHiImKkpOUlZaXmJmaoqOkpaanqKmqsrO0tba3uLm6wsPExcbHyMnK0tPU1dbX2Nna4uPk5ebn6Onq8vP09fb3+Pn6/9oADAMBAAIRAxEAPwD2WiiigAooooAKKKKACiiigAooooAKKKKACiiigAooooAKKKKACiiigAooooAKKKKACiiigAooooAKKKKACiiigAooooAKKKKACiiigAooooAKKKKACiiigAooooAKKKKACiiigAooooAKKKKACiiigAooooAKKKKACiiigAooooAKKKKACiiigAooooAKKKKACiiigAooooAKKKKACiiigAooooAKKKKACiiigAooooAKKKKACiiigAooooAKKKKACiiigAooooAKKKKACiiigAooooAKKKKACiiigAooooAKKKKACiiigAooooAKKKKACiiigAooooAKKKKACiisTxhPLbeF7yaCRo5EClWU4I+YVUIuc1FdXYDborzrQviM8e2DWULr0FxGOR/vL/UflXe2d7b39us1pMksZ6MpyK1r4apQdpoFqWKKKKwAKKKKACiiigAooooAKKKKACiiigAooooAKKKKACiiigAooooAKKKKACiiigAooooAKKKKACiiigAooooAKKKKACiiigAooooAKKKKACiiigAooooAKKKKACiiigAooooAKKKKACiiigAooooAKwfG/wDyKF//ALq/+hCt6sHxv/yKF/8A7q/+hCtcP/Fh6r8wZ47VrTtVvdIn86xuGibuo5VvqO9VaK+wlGM1yyV0Znpug/EO0vtsGqKLSc8Bwcxt/wDE/j+ddijrIgZGDKRwQetfP9bOieKdS0IhbeXzLfPMEhyv4en4V4+JypP3qL17MpS7ntNFc7oXjLTtb2xhvIuj/wAsZDjP0Pf+ftXRV4lSnOm+WSsygoooqQCiiigAooooAKKKKACiiigAooooAKKKKACiiigAooooAKKKKACiiigAooooAKKKKACiiigAooooAKKKKACiiigAooooAKKKKACiiigAooooAKKKKACiiigAooooAKKKKACiiigArB8b/wDIoX/+6v8A6EK3qwfG/wDyKF//ALq/+hCtcP8AxYeq/MGeO0UUV9kZhRRRQAnoe4OQR2rqtC8eX+l7YbzN5bDj5j86/Q9/x/OuWorKrQp1lyzVwvY9u0jX7DW4t9lOrED5ozw6/UVpV4Fb3EtrMs1vK8Uin5WQ4IruNA+I7x7YNZQuvQXEY5H+8vf6j8q8PE5XOHvUtV+JSZ6LRVezvbe/gE1rMk0TdGQ5FWK8lpp2ZQUUUUAFFFFABRRRQAUUUUAFFFFABRRRQAUUUUAFFFFABRRRQAUUUUAFFFFABRRRQAUUUUAFFFFABRRRQAUUUUAFFFFABRRRQAUUUUAFFFFABRRRQAUUUUAFFFFABRRRQAVg+N/+RQv/APdX/wBCFb1YPjf/AJFC/wD91f8A0IVrh/4sPVfmDPHaKKK+yMwooooAKKKKACiiigC1puq3ukT+dY3DRN3A5VvqO9eh6D8Q7W+2waootJzx5gP7tv8A4n8fzrzKm1y4jBUq61WvdAm0fQCOsiBlYMrDIIPWnV4tovijUtCcC3l8yDPMEhyv4eh+lej6F4z07WwsYf7PdH/ljKcZPse/8/avAxOX1aGu67lp3OiooorhGFFFFABRRRQAUUUUAFFFFABRRRQAUUUUAFFFFABRRRQAUUUUAFFFFABRRRQAUUUUAFFFFABRRRQAUUUUAFFFFABRRRQAUUUUAFFFFABRRRQAUUUUAFFFFABWD43/AORQv/8AdX/0IVvVg+N/+RQv/wDdX/0IVrh/4sPVfmDPHaKKK+yMwooooAKKKKACiiigAooooAKT09R09qWigDqdC8e3+lbYbzdeWw4wx+dfo3f6H869I0jWbTW7IXNk5aPO1gRgqfQ/mK8Or034Y/8AIBuf+vk/+grXiZnhacIe0irO/wAiot7HZ0VFPPHbQPNM22ONSzMewHJot7mG7hWa3lSWNuVZDkGvDs7XKJaKKKACiiigAooooAKKKKACiiigAooooAKKKKACiiigAooooAKKKKACiiigAooooAKKKKACiiqo1G0a/NktwjXQXeYgcsB6n06jrRa4FqiiigAooooAKKKKACiiigAooooAKKKKACiiigArB8b/APIoX/8Aur/6EK3qwfG//IoX/wDur/6EK1w/8WHqvzBnjtFFFfZGYUUUUAFFFFABRRRQAUUUUAFFFFABXpvwx/5ANz/18n/0Fa8yr034Y/8AIBuf+vk/+grXnZr/AAPmhx3Ok17/AJAGo/8AXtJ/6Ca8b0nXL7RZhJYzsgPLRnlG+o/r1r2TXv8AkAaj/wBe0n/oJrwwfdH0rkyqEZwmpK60HI9V0Hx9Y6nthvdtncngbm+Rvoe30NdYCGAI5Br5+rf0LxhqWhkRq/2i1HWGQ9Poe38vanicp+1RfyYKXc9jorD0PxZp2ugLDL5VxjmCQ4YfT1/CtyvFnCVN8slZlBRRRUgFFFFABRRRQAUUUUAFFFFABRRRQAUUUUAFFFFABRRRQAUUVFc3MNnA01zKkUSDLO7YAoSuBLWfqutWGi2xn1C4WJewJ+ZvoOprifEPxQVN1voUYdun2iQcf8BXv9T+Vee3d7cahctcXk7zyt1Zzn/9Q9hXdQwMp6z0RnKokdd4h+JN7qG6DSlaztzx5h/1jf8AxP4c+9L8Liz+KLlmZmY2xJYnJPzCuIrtvhX/AMjLP/17H/0IV21qMKdGSiuhEZNyVz1qiiivENwooooAKKKKACiiigAooooAKKKKACiiigArB8b/APIoX/8Aur/6EK3qwfG//IoX/wDur/6EK1w/8WHqvzBnjtFFFfZGYUUUUAFFFFABRRRQAUUUUAFFFFABXpvwx/5ANz/18n/0Fa8yr034Y/8AIBuf+vk/+grXnZr/AAPmhx3Ok17/AJF/Uf8Ar2k/9BNeGD7o+le569/yL+o/9e0n/oJrwwfdH0rnyf4ZfIch1FFFeySICyEMpKspyGBwRXX6F8Qbyw2w6kGu4BwHz+8X/wCK/Hn3rkaKxrYenXVpoE7HuOmazZaxB51jcLKvcZ+ZfqO1X68Etbu4sZ1ntJnhlHRkOP8A9Yru9C+I4O2DWk2noLiMcf8AAl7fUflXhYnK50/ep6r8Sk+56BRUVvcw3cKzW8qSxsMhkOQalry2mnZlBRRRQAUUUUAFFFFABRRRQAUUUUAFFFFABSEhQSeAPWsHxB4w0zw+pW4l825xkQRnLH6+n415h4h8a6nrxaNn+zWh4EER6/7x7/oPaumjhalXyXclzSO88RfEXT9K3wWG29uhwdp/dofdu/0H5ivNNY8Qajr0/mahcM6g/LEOEX6D+pyazKK9ejhadLVK77mDk2FFFFdBIV23wr/5GWf/AK9j/wChCuJrtvhX/wAjLP8A9ex/9CFc+K/gy9Cobo9aooor586QooooAKKKKACiiigAooooAKKKKACiiigArB8b/wDIoX/+6v8A6EK3qwfG/wDyKF//ALq/+hCtcP8AxYeq/MGeO0UUV9kZhRRRQAUUUUAFFFFABRRRQAUUUUAFem/DH/kA3P8A18n/ANBWvMq9N+GP/IBuf+vk/wDoK152a/wPmhx3Ok17/kX9R/69pP8A0E14YPuj6V7nr3/Iv6j/ANe0n/oJrwwfdH0rnyf4ZfIch1FFFeySFFFFABRRRQBf0rXL7RZvMsZ2QE/NGeUb6j+vWvRNB8fWOp7Yb7baXJ6bj8jfQ9voa8sptcmJwVKurtWfdAm0fQIYMAQcg96WvHNC8YaloZWNX+0Wo6wyHOPoe38vavR9D8V6drqhYZPKuMcwScN+Hr+FfP4nAVaGtrruWmmblFFFcYwooooAKKKKACiorm6hs4HmuZUiiQZZ3OAK898Q/FBU32+hoHbp9okHH/AV7/U/lWlKjOq7RQm0tzt9V1qw0W2M9/cLEv8ACCfmb6Dqa818Q/Em91DdBpQaztzx5hP71v8A4n8OfeuRu7241C5a4vJ3nlbqznP/AOoewqvXrUMFCGstX+BjKo3sKSzuWYlmY5LE5JpKKK7jMKKKKACiiigArtvhX/yMs/8A17H/ANCFcTXbfCv/AJGWf/r2P/oQrnxX8GXoVDdHrVFFFfPnSFFFFABRRRQAUUUUAFFFFABRRRQAUUUUAFZPifT5tU8PXdpahTNIoChjgcEH+la1FOEnCSkugHgt3ZXFhcmC7geGUdVcf5yPpUNe5alpNlq9uYb6BZV7Ejlfoe1ee678Pbyz3TaUzXUI58o8SKP/AGb9D7V9Hhszp1LKpo/wIcbHH0UjoyOVZWVlOCpGCKWvTEFFFFABRRRQAUUUUAFFFFABXpvwx/5ANz/18n/0Fa8yr034Y/8AIBuf+vk/+grXnZr/AAPmhx3Ok17/AJF/Uf8Ar2k/9BNeGD7o+le569/yL+o/9e0n/oJrwwfdH0rnyf4ZfIch1FFFeySFFFFABRRRQAUUUUAFICyEMpKspyGBxilooA67QviDeWG2HUw13AOA+cSL/wDFfjz716Hpms2OsQedY3Cyr3UfeX6jtXh1S2t3PYzrPaTPDKP4kOP8ivMxOWU6msNH+A1Kx73RXK+CPEl1r1vcJeInmW+0eYnG/Oeo7HjtXUMdqFvQZr5+rSlSm4S3Rd7ikhQSeAPWuO8Q/EXT9K3wWG29uhx8p/dofdu/0H5iuE8ReNNT115IWk+z2mSBDEev+8e/8vaucr0KGA+1U+4ylU7GjrGv6jr0/mahcM4BysY4RfoP69azqKK9KMVFWirIxbvuFFFFUAUUUUAFFFFABRRRQAV23wr/AORln/69j/6EK4mu2+Ff/Iyz/wDXsf8A0IVz4r+DL0Khuj1qiiivnzpCiiigAooooAKKKKACiiigAooooAKKKKACiiigAooooAxdc8LadrqE3EWyfHyzR8MPr6/jXnGu+DNS0TdJs+02o582MZx/vDt+or2Gk612YbHVaGid12E0mfP1Or1TXvAdhqu6azxZ3R5JUfIx91/qK871fQb/AEObZewFVJ+WVeUb6H+hxXv4bHUq+idn2ZLTRn0UUV2CCiiigAooooAK9N+GP/IBuf8Ar5P/AKCteZV6b8Mf+QDc/wDXyf8A0Fa87Nf4HzQ47nSa9/yL+o/9e0n/AKCa8MH3R9K9z17/AJF/Uf8Ar2k/9BNeGD7o+lc+T/DL5DkOooor2SQooooAKKKKACiiigAooooAKKKKAO/+Fv3tS/7Z/wBa7+X/AFT/AO6a4D4W/e1L/tn/AFrv5f8AVP8A7pr5bMP96l8vyLWx85yf61/94/zptOk/1r/7x/nTa9lbHKFFFFMAooooAKKKKACiiigAooooAK7b4V/8jLP/ANex/wDQhXE123wr/wCRln/69j/6EK58V/Bl6FQ3R61RRRXz50hRRRQAUUUUAFFFFABRRRQAUUUUAFFFFABRRRQAUUUUAFFFFABUc8EVzE0U8ayRsMMrjINSUUJ21QHA658OY5N0+jN5bdTbyH5T9D2+h/SuDu7O4sLkwXkDwyjqrD/OR9K96qlqWk2er2/k30Cyr2JHK+4PavUw2aVKelTVfiS0eGUV2Gu/D27st02ls11COfKP+sUf+zfoa450ZHKsrKynBUjBFe7RxFOurwZLVhaKKK2AK9N+GP8AyAbn/r5P/oK15lXpvwx/5ANz/wBfJ/8AQVrzs1/gfNDjudJr3/Iv6j/17Sf+gmvDB90fSvc9e/5F/Uf+vaT/ANBNeGD7o+lc+T/DL5DkOooor2SQooooAKKKKACiiigAooooAKKKKAO/+Fv3tS/7Z/1rv5f9U/8AumuA+Fv3tS/7Z/1rv5f9U/8Aumvlsw/3qXy/ItbHznJ/rX/3j/Om06T/AFr/AO8f502vZWxyhRRRTAKKKKACiiigAooooAKKKKACu2+Ff/Iyz/8AXsf/AEIVxNdt8K/+Rln/AOvY/wDoQrnxX8GXoVDdHrVFFFfPnSFFFFABRRRQAUUUUAFFFFABRRRQAUUUUAFFFFABRRRQAUUUUAFFFFABRRRQAVi654W07XUJuItk+MLNHww+vr+NbVFVCcoPmi7MDx7XfBmpaJul2fabUc+bGOn+8O36iuer6C61ymveA7DVt01pizujyWUfI591/qP1r2sNm32ay+aJcex5VXpvwx/5ANz/ANfJ/wDQVrgdW0G/0SbZewFUJwsq8o30P9Diu++GP/IBuf8Ar5P/AKCtb5lOM8NzRd1dCW50mvf8i/qP/XtJ/wCgmvDB90fSvc9e/wCRf1D/AK9pP/QTXhg+6PpWWT/DL5DkOooor2SQooooAKKKKACiiigAooooAKKKKAO/+Fv3tS/7Z/1rv5f9U/8AumuA+Fv3tS/7Z/1rv5f9U/8Aumvlsw/3qXy/ItbHznJ/rX/3j/Om06T/AFr/AO8f502vZWxyhRRRTAKKKKACiiigAooooAKKKKACu2+Ff/Iyz/8AXsf/AEIVxNdt8K/+Rln/AOvY/wDoQrnxX8GRUN0etUUUV8+dIUUUUAFFFFABRRRQAUUUUAFFFFABRRRQAUUUUAFFFFABRRRQAUUUUAFFFFABRRRQAUUUUART28VzC0U8ayRsMMrDINVNJ0W10WOaKxQpHLIZCpOQpIA49uK0KKak0uW+gGfr3/IA1D/r2k/9BNeGj7o+le+Xdul5aS28mdkqFGwecEYNeX674Bv9M3TWOby2HJAH7xfqO4+n5V62VV6dO8ZuzewpI5Wik5DEEEEHBB7UtfQEBRRRQAUUUUAFFFFABRRRQAUUUUAd/wDC372pf9s/6138v+qf/dNcB8Lfval/2z/rXfy/6p/9018tmH+9S+X5FrY+c5P9a/8AvH+dNp0n+tf/AHj/ADpteytjlCiiimAUUUUAFFFFABRRRQAUUUUAFdr8K/8AkZbj/r2P/oQrmNK0a+1q58nT7ZpmH3mHCr9T2r1Xwf4JHhp3uprgzXcibGCjCKOvHc9Bz+lcWMqwjTcL6voaQi73OtooorxDcKKKKACiiigAooooAKKKKACiiigAooooAKKKKACiiigAooooAKKKKACiiigAooooAKKKKACiiigAorP10kaDfkEgi3kIIOP4TXnWg/EC+04LDqAN5b/3j/rF/Hv+P5100cJUrxcqetgbsdrrvg/TtczI6eTdHpNEOT9R3/GvN9c8KaloRZp4/Nt88TxjK/j6H6/nXrOla1Y6zB5tjOsgH3l6Mv1HarzKHUqwBU9QRW1DG1sM+WWqXRiaTPn6nV6dr3w9s7/dPpmLS4POzH7tvw/h/D8q881PSb3R5/JvrdomP3W6q30Pevdw+NpV1o9ezIaaKlFFFdYBRRRQAUUUUAFFFFAHf/C372pf9s/6138v+qf/AHTXAfC372pf9s/6138v+qf/AHTXy2Yf71L5fkWtj5zk/wBa/wDvH+dNp0n+tf8A3j/Om17K2OUKKKKYBRRRQAUUUUAFFLySAASScADnNdf4e+HWoattn1DdZWp5AYfvGHsO31P5VnUqxpq8nYai3scpbW013OsFtE80rn5UQZNd/wCHvhezbLjXZNq9RbRnn/gTf0H513Oj+H9P0GDy7C3VCR8znl2+prTryq2OlLSGi/E2jTS3K9nZW+n2629pCkMSjhUGBViiiuBtt6mgUUUUAFFFFABRRRQAUUUUAFFFFABRRRQAUUUUAFFFFABRRRQAUUUUAFFFFABRRRQAUUUUAFFFFABRRRQBQ17/AJF/UP8Ar2k/9BNeGD7o+le569/yL+o/9e0n/oJrwwfdH0r3sn+GXyJkTW1zPZzrPayvDKvRkODXdaF8R8bYNaj9vtEY4/4Ev9R+VcDRXo4jC0q699fPqSnY96tbuC9gWa2lSWJhkMhyDSXVnb30DQXUKTRN1VxkGvEtL1m+0afzbG4aPJyy9Vb6ivRNB+INnqO2HUAtncHjcT+7Y/Xt9DXg4jLqtB80NV5botNMy9d+HDJun0V8jqbeQ/8AoLf0P51w08E1pO0NzE8Uq/eRxg174pDKCCCDzkVn6toVjrUHlX0Cvj7rjhl+hrTDZpOn7tTVfiJrseIUV1Ou+Ab7TN01jm8thyQB+8X6jv8Ah+VcryGIIIIOCD2r3KNenWXNB3JtYWiiitgCiiigDv8A4W/e1L/tn/Wu/l/1T/7prgPhb97Uv+2f9a7+X/VP/umvlsw/3qXy/ItbHznJ/rX/AN4/zptOk/1r/wC8f502vZWxyhRRRTAKKKvaVo19rVz5On27SsD8zdFX6ntUykoq8nZBuUa3dA8Ian4gKtbxeTbZ5uJRhfw/vfh+dd54e+G1lp+yfVSt5cDnZj92p+n8X4/lXaqiooVQAo4AA6V51fH/AGaf3msafc57w94K0zQAsip9ougP9fKOR9B/D/P3ro6KK8yc5Td5O5qkkFFFFSMKKKKACiiigAooooAKKKKACiiigAooooAKKKKACiiigAooooAKKKKACiiigAooooAKKKKACiiigAooooAKKKKAKGvf8i/qP/XtJ/6Ca8MH3R9K9z17/kX9R/69pP8A0E14YPuj6V72T/DL5EyHUUUV7JIU2nUUAbWieLdS0IhI5POth1hkPA/3T2/l7V6RoXi7TtcVUjk8m5I5glOD+Hr+FeO0gJBBBIIOQQcYrgxOX0q+trPuv1GpNH0DXP674P07WwZGj8i5I/10QwT9R3/GuL0Hx/fabth1ANeW443E/vF/Hv8Aj+deiaVrdjrMHm2M6yAfeXoy/Udq8Orh6+ElzfiirpnlGueFNS0Ilp4/Nts8TxjI/H0/H86xK+gGUOpVgCp6g965DX/h7Z3+6fTcWlweSoH7tvw7fh+Vejhs1TtGsvmv1E49jzCirepaRe6RP5N9btET91uqt9D3qpXsxnGa5ou6JO/+Fv3tS/7Z/wBa7+X/AFT/AO6a4D4W/e1L/tn/AFrv5f8AVP8A7pr5fMP96l8vyLWx85yf61/94/zptOk/1r/7x/nSDJYAAkk4AHOa9lbHKJUttbTXc6wWsLzSuflRBk11nh74dahquyfUM2VqecMP3jD2Hb6n8q9M0fw/p2hQeVYW6xk/ec8u31NcdbGwp6R1f4Fxpt7nD+HvhezbLjXZNo6i2jP/AKE39B+deh2dlb2FstvaQpDEvRUGAKsUV5NWvOq7yZuopBRRRWQwooooAKKKKACiiigAooooAKKKKACiiigAooooAKKKKACiiigAooooAKKKKACiiigAooooAKKKKACiiigAooooAKKKKACiiigChr3/ACL+o/8AXtJ/6Ca8MH3R9K9z17/kX9R/69pP/QTXhg+6PpXvZP8ADL5EyHUUUV7JIUUUUAFFFFABUlvcT2k6z2srwyr0ZDg1HRSaTVmB32hfEfG2DWk9hcRj/wBCX+o/Ku8truC9gWe2lSWJhkMhyDXgtXNL1m+0afzbG4aPJyynlW+orysTlUZ+9S0fboUpdz227s7e+gaC6hSWJhyrjINcFrvw4ZN0+ivkdTbyH/0Fv6H861NC+IFlqG2HUALO4PRif3bfj2/H8668MGUEHIPIIryYzxGDn2/Jj0Zwfw1tprSfVIbiJ4pFKblcYPeu6l/1L/7ppdo3FsDJ74pevFZV67rVHUa3GlY8P0TwfqfiCYvBF5NtuOZ5Rhevb+9+H516d4f8E6ZoCrIiefdAczyjJH+6P4fw5966FVCgBQAB0AHSnVdbFzq6bIlQSCiiiuYoKKKKACiiigAooooAKKKKACiiigAooooAKKKKACiiigAooooAKKKKACiiigAooooAKKKKACiiigAooooAKKKKACiiigAooooAKKKKACiiigChr3/Iv6j/ANe0n/oJrwwfdH0r3PXv+Rf1H/r2k/8AQTXhg+6PpXvZP8MvkTIdRRRXskhRRRQAUUUUAFFFFABRRRQA2tzQ/Fmo6EwSOTzrYHmCQ8Aex7H/ADisWis6lKFVcs1dAez+HfElr4igd7dXjkjx5kbD7pPv36Vs1598Lfval/2z/rXoNfKYulGjWcI7I0TugooornAKKKKACiiigAooooAKKKKACiiigAooooAKKKKACiiigAooooAKKKKACiiigAooooAKKKKACiiigAooooAKKKKACiiigAooooAKKKKACiiigAooooAoa9/yL+o/9e0n/oJrwwfdH0r3PXv+Rf1H/r2k/wDQTXhg+6PpXvZP8MvkTIdRRRXskhRRRQAUUUUAFFFFABRRRQAUUUUAd/8AC372pf8AbP8ArXoNeffC372pf9s/616DXyuY/wC8S+X5FrYKKKK4hhRRRQAUUUUAFFFFABRRRQAUUUUAFFFFABRRRQAUUUUAFFFFABRRRQAUUUUAFFFFABRRRQAUUUUAFFFFABRRRQAUUUUAFFFFABRRRQAUUUUAFFFFAFDXv+Rf1H/r2k/9BNeGD7o+le569/yL+o/9e0n/AKCa8MH3R9K97J/hl8iZDqKKK9kkKKKKACiiigAooooAKKKKACiiigDv/hb97Uv+2f8AWvQa8++Fv3tS/wC2f9a9Br5XMf8AeJfL8i1sFFFFcQwooooAKKKKACiiigAooooAKKKKACiiigAooooAKKKKACiiigAooooAKKKKACiiigAooooAKKKKACiiigAooooAKKKKACiiigAooooAKKKKACiiigChr3/Iv6j/ANe0n/oJrwwfdH0r3PXv+Rf1H/r2k/8AQTXhg+6PpXvZP8MvkTIdRRRXskhRRRQAUUUUAFFFFABRRRQAUUUUAd/8Lfval/2z/rXoNeffC372pf8AbP8ArXoNfK5j/vEvl+Ra2CiiiuIYUUUUAFFFFABRRRQAUUUUAFFFFABRRRQAUUUUAFFFFABRRRQAUUUUAFFFFABRRRQAUUUUAFFFFABRRRQAUUUUAFFFFABRRRQAUUUUAFFFFABRRRQBV1K2a80u6toyFaaJowT0BIx/WvFdU0W+0WXyr6Bo+yuOVb6GvdKhubWG8gaG5iSWNhgqwyDXbg8bLDN6XT3E1c8Forvte+HGN0+ivjubeQ/+gt/Q/nXC3FrPZztDdQvDKvVXGD9a+ioYqlXXuP5dSGrEdFFFdABRRRQAUUUUAFFFFABRRRQB3/wt+9qX/bP+teg1598Lfval/wBs/wCteg18rmP+8S+X5FrYKKKK4hhRRRQAUUUUAFFFFABRRRQAUUUUAFFFFABRRRQAUUUUAFFFFABRRRQAUUUUAFFFFABRRRQAUUUUAFFFFABRRRQAUUUUAFFFFABRRRQAUUUUAFFFFABRRRQAVn6rotjrMHlX0CyAfdb+Jfoe1aFFOMnF3TswPK9d+H97p26bTybu3H8IH7xfw7/h+VckQQSpBDA4IIxivoGsLXfCOna6C8sfk3OOJ4xhvx9fxr18Nmso2jWV/Mlx7HjlFbWu+EtR0Il5I/Pts8TRjgf7w7fy96w69unVhVXNB3RI6iiitACiiigAooooA7/4W/e1L/tn/WvQa8++Fv3tS/7Z/wBa9Br5XMf94l8vyLWwUUUVxDCiiigAooooAKKKKACiiigAooooAKKKKACiiigAooooAKKKKACiiigAooooAKKKKACiiigAooooAKKKKACiiigAooooAKKKKACiiigAooooAKKKKACiiigAooooAKKKKAEKhlIIBB7GuR17wBZaiWnsCLO4POAP3bH3Hb8K6+itKVadKXNB2YNXPDNU0a+0afyr6Bo8n5XHKt9DVKve7m1hvIGhuYkljYcq4yDXB678OOWn0V8dzbyH/wBBb+h/Ovdw2axn7tXR9+hLj2OAoqS4tZ7OdobqF4ZV6q4wf/1VHXqppq6JCiiimB3/AMLfval/2z/rXoNeffC372pf9s/616DXyuY/7xL5fkWtgoooriGFFFFABRRRQAUUUUAFFFFABRRRQAUUUUAFFFFABRRRQAUUUUAFFFFABRRRQAUUUUAFFFFABRRRQAUUUUAFFFFABRRRQAUUUUAFFFFABRRRQAUUUUAFFFFABRRRQAUUUUAFFFFABRRRQBQ1TRbHWYPKvoFkA+63Rl+h7V53rvw+vdO3TaeWvLcclQP3i/h3/D8q9Torpw+Mq4d+69OwNJnz8QQSCCGBwQRjFLXseu+EdN10F5Y/JuccTxjDfj6/jXm2ueEdS0Il5I/Pts8TRjgf7w7fy969/DZhSr6Xs+zIaaOl+Fv3tS/7Z/1r0GvPvhZ/zEv+2f8AWvQa8TMf94l8vyKWwUUUVxDCiiigAooooAKKKKACiiigAooooAKKKKACiiigAooooAKKKKACiiigAooooAKKKKACiiigAooooAKKKKACiiigAooooAKKKKACiiigAooooAKKKKACiiigAooooAKKKKACiiigAooooAKKKKACkZQwIIBB4waWigChY6NZabczzWcCwtPjeE4U49u3XtV+iihybd2wCiiigAooooAKKKKACiiigAooooAKKKKACiiigAooooAKKKKACiiigAooooAKKKKACiiigAooooAKKKKACiiigAooooAKKKKACiiigAooooAKKKKACiiigAooooAKKKKACiiigAooooAKKKKACiiigAooooAKKKKACiiigAooooAKKKKACiiigAooooAKKKKACiiigAooooAKKKKACiiigAooooAKKWigBKKWigBKKWigBKKWigBKKWigBKKWigBKKWigBKKWigBKKWigBKKWigBKKWigBKKWigBKKWigBKKWigBKKWigBKKWigBKKWigBKKWigBKKWigBKKWigBKKWigBKKWigBKKWigBKKWigBKKWigBKKWigBKKWigBKKWigBKKWigBKKWigD/2Q==;" vertex="1" parent="1">
          <mxGeometry x="710" y="865" width="40" height="40" as="geometry" />
        </mxCell>
        <mxCell id="gFosJzpJzTd7QRDbn3aV-44" value="Power BI" style="image;aspect=fixed;html=1;points=[];align=center;fontSize=12;image=img/lib/azure2/analytics/Power_BI_Embedded.svg;" vertex="1" parent="1">
          <mxGeometry x="705" y="713.88" width="30" height="40" as="geometry" />
        </mxCell>
        <mxCell id="gFosJzpJzTd7QRDbn3aV-46" value="Resource Group" style="text;html=1;align=center;verticalAlign=middle;whiteSpace=wrap;rounded=0;" vertex="1" parent="1">
          <mxGeometry x="738.37" y="350" width="60" height="30" as="geometry" />
        </mxCell>
      </root>
    </mxGraphModel>
  </diagram>
</mxfile>
